Coordinates
version=1
nRows=10
nColumns=40
inDegrees=yes

Units are S.I. units (second, meters, Newtons, ...)
Angles are in degrees.

endheader
time	pelvis_tilt	pelvis_list	pelvis_rotation	pelvis_tx	pelvis_ty	pelvis_tz	hip_flexion_r	hip_adduction_r	hip_rotation_r	knee_angle_r	knee_angle_r_beta	ankle_angle_r	subtalar_angle_r	mtp_angle_r	hip_flexion_l	hip_adduction_l	hip_rotation_l	knee_angle_l	knee_angle_l_beta	ankle_angle_l	subtalar_angle_l	mtp_angle_l	lumbar_extension	lumbar_bending	lumbar_rotation	arm_flex_r	arm_add_r	arm_rot_r	elbow_flex_r	pro_sup_r	wrist_flex_r	wrist_dev_r	arm_flex_l	arm_add_l	arm_rot_l	elbow_flex_l	pro_sup_l	wrist_flex_l	wrist_dev_l
     39.55000000	     -6.11981885	     -3.75426137	     12.77411184	      1.10503685	      0.92160450	      0.45431067	      1.04147182	     -0.93990477	    -20.83570653	     14.73085322	     14.73085322	     16.24064276	     -5.20946275	     -2.13920553	     26.59291173	     -2.29823803	      3.84613048	     23.63308629	     23.63308629	      6.30367939	    -10.30275595	      0.73360745	     -7.36334597	      2.92595118	      4.41358334	     67.60535884	    -18.33439888	     -2.52955813	     81.88179257	     44.96461922	      0.00000000	      0.00000000	    -17.09765948	    -12.54211391	     22.96892645	     32.66605620	     43.41250280	      0.00000000	      0.00000000
     39.57200000	     -6.20827625	     -3.86629571	     12.24974493	      1.10693295	      0.92209510	      0.45054874	      0.77192726	     -1.13471229	    -20.65403339	     14.78401766	     14.78401766	     15.78336296	     -4.72080717	     -2.47512661	     26.50933443	     -2.35822458	      3.60270924	     24.35083556	     24.35083556	      7.84296118	    -10.18401374	      3.13504122	     -7.29665750	      2.91498978	      4.24566787	     65.61697982	    -17.50679835	     -2.96350796	     80.28272320	     45.07679663	      0.00000000	      0.00000000	    -15.95918229	    -11.74777066	     18.21744204	     32.03034121	     44.38422404	      0.00000000	      0.00000000
     39.59400000	     -6.25871312	     -4.01445410	     11.69549703	      1.10871984	      0.92264955	      0.44692034	      0.54890182	     -1.30867980	    -20.47062727	     14.96120607	     14.96120607	     15.44822258	     -4.17764864	     -2.50523512	     26.19877500	     -2.46385362	      3.39514056	     24.62154790	     24.62154790	      8.18006429	    -10.65023336	      3.01793125	     -7.24970380	      2.92554600	      4.47183725	     63.13207569	    -17.47087532	     -3.06417223	     78.84534372	     45.12007648	      0.00000000	      0.00000000	    -14.55753318	    -11.90567072	     17.80278798	     32.45193376	     44.47674804	      0.00000000	      0.00000000
     39.61600000	     -6.23710764	     -4.14383280	     11.10334481	      1.11036767	      0.92329654	      0.44338569	      0.35833599	     -1.55014998	    -20.32912231	     15.34595047	     15.34595047	     15.16694460	     -3.49061397	     -2.70882494	     25.76583011	     -2.57290255	      3.15753232	     24.81881190	     24.81881190	      8.56007538	    -11.10921157	      3.09376991	     -7.28551918	      2.93742556	      4.82438787	     60.52019731	    -17.36653798	     -3.66101299	     76.71915346	     45.20373975	      0.00000000	      0.00000000	    -12.87613091	    -11.92989041	     16.94738753	     32.67736400	     44.64552921	      0.00000000	      0.00000000
     39.63800000	     -6.16804877	     -4.31699286	     10.56217082	      1.11193711	      0.92400326	      0.43989954	      0.14408109	     -1.69881745	    -20.03122399	     15.71948906	     15.71948906	     14.83997994	     -3.19078793	     -2.74875628	     25.28799269	     -2.73049887	      2.91703618	     24.99884803	     24.99884803	      8.95436614	    -11.44539755	      3.02501979	     -7.41280679	      3.02207428	      4.60916860	     57.49540471	    -16.79174693	     -3.44930632	     75.42851951	     45.22643120	      0.00000000	      0.00000000	    -11.35156629	    -11.99875049	     16.66379950	     33.08720875	     44.71099026	      0.00000000	      0.00000000
     39.66000000	     -6.27713506	     -4.38810548	      9.98255484	      1.11318861	      0.92453396	      0.43635539	      0.28886619	     -2.10766658	    -19.85800131	     16.43029644	     16.43029644	     14.56473296	     -2.65852888	     -3.10318784	     24.89684866	     -2.75032894	      2.56320695	     24.99316537	     24.99316537	      9.29919625	    -11.73674009	      3.24228768	     -7.26091059	      2.87522180	      5.14871436	     54.25134214	    -17.09103271	     -4.27448014	     72.15732094	     45.35171232	      0.00000000	      0.00000000	     -9.21060630	    -11.93478972	     15.65373017	     33.25144674	     44.89631929	      0.00000000	      0.00000000
     39.68200000	     -6.22934507	     -4.49769109	      9.46321303	      1.11437891	      0.92517197	      0.43277322	      0.28695133	     -2.42973731	    -19.61890437	     17.10725179	     17.10725179	     13.94610773	     -2.45441982	     -4.27525684	     24.45617019	     -2.80380968	      2.30894303	     25.21187661	     25.21187661	     10.09618305	    -11.89125542	      4.28239178	     -7.31806452	      2.84700849	      4.41388964	     51.62847812	    -15.52311188	     -5.22713456	     67.76569446	     45.50731353	      0.00000000	      0.00000000	     -7.26385438	    -10.53073532	      8.51931598	     31.86653988	     45.97894475	      0.00000000	      0.00000000
     39.70400000	     -6.21655138	     -4.58843767	      8.96244467	      1.11542111	      0.92566237	      0.42914648	      0.51117536	     -2.84271131	    -19.30163092	     18.16166217	     18.16166217	     13.67201826	     -2.33985209	     -4.57488107	     23.98755843	     -2.82408249	      2.02394570	     25.26170240	     25.26170240	     10.41396905	    -12.15762887	      4.21630017	     -7.36511774	      2.78974958	      4.45207632	     47.85429994	    -15.47559779	     -5.17300352	     65.31692648	     45.57014964	      0.00000000	      0.00000000	     -5.19168432	    -10.58422512	      8.34922727	     32.46158651	     46.03202999	      0.00000000	      0.00000000
     39.72600000	     -6.17209462	     -4.66793436	      8.47123267	      1.11621197	      0.92598149	      0.42542439	      0.93995191	     -3.35655716	    -18.94052498	     19.64265580	     19.64265580	     13.36520553	     -2.38071328	     -5.21070851	     23.54510845	     -2.80275940	      1.81824491	     25.39647846	     25.39647846	     10.79234967	    -12.51185103	      4.20625834	     -7.46722437	      2.76623908	      4.62737993	     44.11839377	    -15.45604725	     -5.26593803	     62.15075622	     45.66290777	      0.00000000	      0.00000000	     -2.81752465	    -10.52102129	      8.20366817	     32.85009000	     46.08511549	      0.00000000	      0.00000000
     39.74800000	     -6.10576815	     -4.74490045	      8.01405650	      1.11682171	      0.92609388	      0.42159285	      1.54772378	     -3.93509030	    -18.52120304	     21.47829783	     21.47829783	     12.93903385	     -2.68821089	     -6.16872532	     23.15219881	     -2.75859701	      1.59443447	     25.63107023	     25.63107023	     11.18528943	    -12.94465262	      4.25955259	     -7.57904241	      2.79137762	      4.64779088	     40.42183038	    -15.27997848	     -5.36254052	     58.66400976	     45.76687292	      0.00000000	      0.00000000	     -0.30494593	    -10.38764262	      8.13641632	     33.06572845	     46.12863270	      0.00000000	      0.00000000
